<!--?xml version="1.0" encoding="utf-8"?-->
<!-- Generator: Adobe Illustrator 19.1.1, SVG Export Plug-In . SVG Version: 6.00 Build 0)  -->
<svg version="1.1" id="_x31_0" xmlns="http://www.w3.org/2000/svg" xmlns:xlink="http://www.w3.org/1999/xlink" x="0px" y="0px" viewBox="0 0 512 512" style="width: 256px; height: 256px; opacity: 1;" xml:space="preserve">
<style type="text/css">
	.st0{fill:#374149;}
</style>
<g>
	<path class="st0" d="M94.258,246.687c10.84,40.75,32.551,72.738,62.321,94.059c2.878,2.086,5.746,4.187,8.785,6.078l-69,47.879
		c-12.367,8.629-20.523,21.949-22.492,36.832l-9.387,70.785l-1.285,9.52h0.023L63.203,512h385.598l-10.672-80.465
		c-1.969-14.883-10.125-28.203-22.492-36.832l-49.321-34.222l-19.671-13.727c34.359-21.07,59.21-55.374,71.098-100.066
		c32.21-6.934,55.726-35.27,55.726-68.57c0-32.961-24.125-61.366-56.34-68.027c-5.434-40.367-43.695-75.57-51.851-82.637
		c-5.914-5.027-13.797-7.406-21.473-6.594C319.406,6.996,289.91,0,256,0s-63.406,6.996-87.801,20.859
		c-7.68-0.812-15.562,1.566-21.477,6.66c-8.086,7-46.414,42-51.851,82.57c-32.145,6.661-56.34,35.066-56.34,68.027
		C38.531,211.418,62.047,239.754,94.258,246.687z M200.477,371.05l-6.25-10.465c1.754,0.657,3.614,1.098,5.398,1.676
		c1.114,0.363,2.266,0.722,3.414,1.062c1.738,0.516,3.398,1.16,5.187,1.614l3.465,4.961l11.215,16.035l19.367,27.66l-6.348,9.082
		l-2.523,3.5l-10.496-17.543l-11.215-18.754L200.477,371.05z M239.282,370.168c2.297,0.203,4.714,0.18,7.058,0.289
		c0.691,0.031,1.394,0.059,2.094,0.086c2.531,0.09,4.984,0.305,7.566,0.305c2.203,0,4.289-0.196,6.453-0.262
		c3.489-0.082,6.887-0.191,10.195-0.316l-12.503,17.84l-4.176,5.867L239.282,370.168z M311.523,374.652l-11.214,18.489
		l-11.211,18.414l-9.718,15.902l-12.641,20.934h-0.137l0.066,0.066l-6.793,11.145l-3.262,5.371l-3.602,5.844l-3.059,5.031
		l-6.594,10.87l-0.203,0.406H227.23l-8.886-0.09l11.289-16.218l2.309-3.262l5.574-7.953l1.497-2.106l6.386-9.106l0.68-1.019
		L256,433.168l13.726-19.574l19.371-27.66l11.211-16.035l3.465-4.961c2.129-0.558,4.106-1.317,6.172-1.942
		c1.25-0.379,2.496-0.77,3.706-1.168c1.946-0.637,3.985-1.141,5.891-1.851l0.679,0.473L311.523,374.652z M346.863,49.742v-0.746
		c0,0,4.618,3.875,10.805,10.398c0.27,0.27,0.543,0.61,0.882,0.95c0.27,0.273,0.543,0.613,0.883,0.953
		c0.34,0.34,0.61,0.68,0.953,1.02c1.223,1.359,2.512,2.785,3.805,4.281c0.066,0.137,0.203,0.274,0.34,0.406
		c9.242,10.875,19.367,25.418,23.309,40.367c1.086,4.078,1.633,8.222,1.633,12.371c-0.016,1.714-0.133,3.41-0.254,5.109
		c-0.058,0.836-0.117,1.676-0.203,2.532c-0.355,3.523-0.906,6.957-1.582,10.25c-0.141,0.695-0.282,1.39-0.438,2.094
		c-0.379,1.695-0.774,3.367-1.195,4.957c-2.855,10.454-6.45,18.242-7.531,20.481c-0.18,0.328-0.309,0.531-0.39,0.629l-7.57-18.054
		c2.172-35.95-14.547-67.688-21.477-79.035c-1.699-2.922-2.855-4.485-2.855-4.485L346.863,49.742z M124.23,107.305
		c3.805-14.61,13.523-28.746,22.558-39.418c0-0.066,0-0.066,0.07-0.066c0.473-0.609,0.95-1.156,1.426-1.766
		c1.02-1.156,1.973-2.175,2.922-3.262c0.41-0.476,0.882-1.019,1.359-1.496c0.543-0.543,1.019-1.086,1.496-1.633l1.019-1.019
		c5.734-6.004,9.973-9.578,10.035-9.629l0.028,0.05l0.062,0.676l0.816,14.476c0,0-1.09,1.563-2.855,4.485
		c-6.863,11.347-23.649,43.086-21.477,79.035l-4.66,11.117l-3.008,6.91c-0.312-0.617-4.55-9.11-7.824-21.082
		c-0.422-1.59-0.817-3.266-1.195-4.961c-0.156-0.699-0.297-1.39-0.438-2.082c-0.672-3.293-1.226-6.734-1.582-10.262
		c-0.082-0.852-0.144-1.684-0.202-2.52c-0.122-1.699-0.238-3.402-0.254-5.117C122.527,115.594,123.141,111.45,124.23,107.305z
		 M106.965,143.934c3.875,16.992,10.266,29.629,10.602,30.379c3.195,6.25,9.582,10.125,16.515,10.125h0.75
		c7.203-0.27,13.59-4.758,16.375-11.418l7.542-18.144c1.09-2.649,1.566-5.438,1.43-8.29c-2.246-37.785,20.793-71.426,20.996-71.766
		c2.449-3.398,3.602-7.476,3.332-11.691l-0.614-10.664C202.379,41.453,225.961,35.199,256,35.199s53.621,6.254,72.106,17.266
		l-0.614,10.664c-0.27,4.215,0.883,8.363,3.332,11.762c0.203,0.27,23.242,33.91,21,71.695c-0.137,2.852,0.336,5.641,1.426,8.29
		l7.543,18.144c2.786,6.661,9.172,11.149,16.379,11.418h0.746c6.934,0,13.321-3.875,16.516-10.125
		c0.34-0.75,6.726-13.387,10.602-30.379c18.55,1.222,33.23,15.836,33.23,34.183c0,19.098-15.969,35-35.68,35
		c-4.39,0-8.523-0.87-12.426-2.304c-0.39-0.161-0.828-0.219-1.211-0.395c0,0.008-0.003,0.02-0.003,0.028
		c-0.051-0.02-0.106-0.028-0.153-0.047c-3.606,31.668-14.406,60.008-32.351,81.618c-9.172,11.011-20.184,20.32-33.024,27.457
		c-18.554,10.328-41.05,16.172-67.418,16.172s-48.863-5.844-67.414-16.172c-12.843-7.137-23.855-16.446-33.027-27.457
		c-17.942-21.61-28.746-49.95-32.351-81.618c-4.211,1.77-8.898,2.718-13.793,2.718c-19.641,0-35.68-15.902-35.68-35
		C73.734,159.77,88.414,145.156,106.965,143.934z" style="fill: rgb(243, 78, 78);"></path>
	<path class="st0" d="M208.293,151.344c6.66,0,12.027-5.371,12.027-11.965c0-6.657-5.367-12.028-12.027-12.028
		c-6.594,0-11.961,5.371-11.961,12.028C196.332,145.973,201.699,151.344,208.293,151.344z" style="fill: rgb(243, 78, 78);"></path>
	<path class="st0" d="M303.707,151.344c6.594,0,11.961-5.371,11.961-11.965c0-6.657-5.367-12.028-11.961-12.028
		c-6.66,0-12.031,5.371-12.031,12.028C291.676,145.973,297.047,151.344,303.707,151.344z" style="fill: rgb(243, 78, 78);"></path>
	<path class="st0" d="M188.722,260.55c0.203,0.07,0.34,0.137,0.543,0.203c4.758,1.633,10.328,2.516,16.582,2.516
		c5.07,0,11.094-0.734,17.359-1.977c4-0.703,8.09-1.535,12.195-2.531c0.004,0.008,0.004,0.016,0.008,0.023
		c0.27,0.68,0.609,1.36,0.949,1.969c0.614,1.157,1.359,2.313,2.176,3.332c1.766,2.176,3.805,4.012,6.25,5.301
		c0.547,0.406,1.09,0.68,1.699,0.95c0.477,0.207,1.02,0.477,1.566,0.683c0.406,0.203,0.883,0.336,1.29,0.473
		c0.542,0.137,1.019,0.34,1.562,0.406c0.137,0.07,0.274,0.137,0.41,0.137c0.542,0.07,1.019,0.137,1.562,0.203
		c0.203,0.07,0.406,0.137,0.679,0.137c0.473,0.07,0.883,0.07,1.426,0.07c0.136,0.066,0.339,0.066,0.542,0.066
		c0.477,0,1.09,0,1.566-0.066c0.406,0,0.95,0,1.356-0.07c0.339,0,0.613-0.066,0.886-0.137c0.473-0.066,0.882-0.133,1.355-0.203
		c0.137,0,0.274-0.066,0.41-0.137c0.543-0.066,1.086-0.27,1.496-0.406c0.473-0.137,0.813-0.27,1.222-0.473
		c0.61-0.136,1.157-0.41,1.699-0.683c1.086-0.543,2.172-1.153,3.192-1.832c1.77-1.226,3.398-2.719,4.758-4.418
		c0.817-1.019,1.562-2.175,2.176-3.332c0.34-0.609,0.679-1.289,0.949-1.969c0.07-0.136,0.137-0.339,0.207-0.476
		c10.394,3.195,21.133,4.961,29.355,4.961c6.254,0,11.829-0.883,16.582-2.516c0.207-0.066,0.34-0.133,0.547-0.203
		c11.277-4.144,19.976-12.098,24.394-22.426c4.148-9.785,4.148-21.066,0-30.106c-4.418-9.718-13.863-15.699-24.465-15.699
		c-7.477,0-14.203,3.059-18.282,8.157c-7.442-5.422-15.035-9.926-22.289-12.192c-2.066-0.683-4.035-1.16-5.934-1.461l0.902-1.094
		c2.789-3.332,4.148-7.34,4.148-11.418c0-2.653-0.543-5.301-1.699-7.75c-3.058-6.316-9.242-10.328-16.312-10.328h-15.493
		c-7.07,0-13.254,4.012-16.242,10.328c-3.059,6.39-2.11,13.73,2.378,19.168l0.672,0.813l0.211,0.359
		c-8.954,1.106-18.715,6.66-28.203,13.574c-4.078-5.098-10.805-8.157-18.282-8.157c-10.668,0-19.98,5.981-24.465,15.699
		c-4.144,9.039-4.144,20.321,0,30.106C168.742,248.453,177.442,256.406,188.722,260.55z M246.282,173.359
		c0.339-0.609,0.816-1.289,1.972-1.289h15.493c1.156,0,1.699,0.68,1.972,1.289c0.27,0.543,0.406,1.43-0.339,2.313l-7.68,9.378
		c-0.61,0.68-1.293,0.746-1.699,0.746c-0.34,0-1.086-0.066-1.699-0.746l-7.68-9.378
		C245.875,174.789,246.078,173.902,246.282,173.359z M177.914,214.27c2.312-5.027,6.863-6.996,10.874-6.996
		c2.719,0,5.098,0.882,6.458,2.378c0.179,0.18,0.273,0.406,0.398,0.618c0.066,0.164,0.183,0.293,0.195,0.496
		c-0.774-0.43-1.602-0.707-2.5-0.707c-4.141,0-9.309,4.282-9.035,10.672c0.203,4.687,4.144,6.656,8.359,6.656
		c2.988,0,6.047-0.949,8.086-2.648c4.145-3.398,25.891-23.039,37.852-23.039c9.988,0,15.351,6.66,16.91,8.938
		c0.086,0.133,0.187,0.281,0.258,0.398c0.086,0.191,0.164,0.382,0.164,0.382s0.066,0,0.066-0.07c0.614-0.95,6.05-9.649,17.398-9.649
		c11.961,0,33.707,19.641,37.851,23.039c2.039,1.699,5.098,2.648,8.086,2.648c4.214,0,8.156-1.969,8.359-6.656
		c0.274-6.39-4.89-10.672-8.969-10.672c-0.453,0-0.816,0.188-1.211,0.301c-0.367,0.074-0.851,0.191-1.422,0.332
		c1.008-2.102,3.855-3.418,7.118-3.418c4.011,0,8.562,1.969,10.874,6.996c4.282,9.246,1.36,26.168-16.312,32.351
		c-3.262,1.157-7.27,1.63-11.622,1.63c-18.89,0-44.648-9.649-50.152-18.418c-5.504,8.77-31.262,18.418-50.152,18.418
		c-4.352,0-8.294-0.473-11.622-1.63C176.625,240.438,173.633,223.516,177.914,214.27z" style="fill: rgb(243, 78, 78);"></path>
</g>
</svg>
